<?xml version="1.0" encoding="UTF-8" standalone="no"?>
<svg
   xmlns:dc="http://purl.org/dc/elements/1.1/"
   xmlns:cc="http://creativecommons.org/ns#"
   xmlns:rdf="http://www.w3.org/1999/02/22-rdf-syntax-ns#"
   xmlns:svg="http://www.w3.org/2000/svg"
   xmlns="http://www.w3.org/2000/svg"
   xmlns:sodipodi="http://sodipodi.sourceforge.net/DTD/sodipodi-0.dtd"
   xmlns:inkscape="http://www.inkscape.org/namespaces/inkscape"
   height="422pt"
   viewBox="0 -75 422.67252 422"
   width="422pt"
   version="1.1"
   id="svg4775"
   sodipodi:docname="pie2.svg"
   inkscape:version="0.92.4 5da689c313, 2019-01-14">
  <metadata
     id="metadata4781">
    <rdf:RDF>
      <cc:Work
         rdf:about="">
        <dc:format>image/svg+xml</dc:format>
        <dc:type
           rdf:resource="http://purl.org/dc/dcmitype/StillImage" />
        <dc:title></dc:title>
      </cc:Work>
    </rdf:RDF>
  </metadata>
  <defs
     id="defs4779" />
  <sodipodi:namedview
     pagecolor="#ffffff"
     bordercolor="#666666"
     borderopacity="1"
     objecttolerance="10"
     gridtolerance="10"
     guidetolerance="10"
     inkscape:pageopacity="0"
     inkscape:pageshadow="2"
     inkscape:window-width="2560"
     inkscape:window-height="1390"
     id="namedview4777"
     showgrid="false"
     inkscape:zoom="1.6777251"
     inkscape:cx="281.33333"
     inkscape:cy="281.33333"
     inkscape:window-x="0"
     inkscape:window-y="50"
     inkscape:window-maximized="0"
     inkscape:current-layer="svg4775" />
  <path
     d="m322.285156 266.585938h52.6875v-34.132813h-265.171875l-47.527343-104.042969s.058593-63.414062 113.09375-83.902344l-8.476563-3.230468c0-13.121094-10.75-23.761719-24.011719-23.761719-10.339844 0-19.074218 6.503906-22.453125 15.578125-4.386719-4.679688-10.601562-7.65625-17.5625-7.65625-13.261719 0-24.007812 10.636719-24.007812 23.761719 0 2.578125.519531 5.015625 1.289062 7.339843-4.371093-4.507812-10.488281-7.339843-17.296875-7.339843-13.261718 0-24.007812 10.640625-24.007812 23.761719 0 3 .621094 5.84375 1.644531 8.488281-1.824219-.371094-3.714844-.566407-5.648437-.566407-15.46875 0-28.011719 12.414063-28.011719 27.722657 0 15.3125 12.542969 27.726562 28.011719 27.726562l52.019531 130.253907h185.835937"
     fill="#f5fcc1"
     id="path4749" />
  <path
     d="m374.972656 273.414062h-52.6875c-3.773437 0-6.824218-3.054687-6.824218-6.828124 0-3.773438 3.050781-6.824219 6.824218-6.824219h45.863282v-20.480469h-258.347657c-2.671875 0-5.101562-1.5625-6.207031-3.996094l-47.527344-104.039062c-.414062-.886719-.621094-1.859375-.621094-2.839844 0-2.707031 1.300782-63.914062 104.609376-87.726562-.324219-9.058594-7.902344-16.332032-17.175782-16.332032-7.125 0-13.578125 4.472656-16.050781 11.128906-.828125 2.210938-2.734375 3.84375-5.054687 4.3125-2.308594.460938-4.714844-.300781-6.324219-2.027343-3.320313-3.542969-7.789063-5.496094-12.582031-5.496094-9.480469 0-17.1875 7.59375-17.1875 16.933594 0 1.582031.308593 3.273437.949218 5.1875 1 3.019531-.214844 6.332031-2.941406 7.988281-2.707031 1.644531-6.214844 1.210938-8.4375-1.082031-3.296875-3.390625-7.703125-5.265625-12.402344-5.265625-9.472656 0-17.179687 7.59375-17.179687 16.933594 0 1.972656.398437 4 1.1875 6.027343.898437 2.324219.460937 4.957031-1.15625 6.871094-1.605469 1.90625-4.144531 2.78125-6.578125 2.28125-1.390625-.28125-2.832032-.429687-4.28125-.429687-11.679688 0-21.183594 9.375-21.183594 20.894531 0 11.527343 9.503906 20.898437 21.183594 20.898437 2.796875 0 5.308594 1.703125 6.34375 4.296875l50.304687 125.960938h181.207031c3.773438 0 6.828126 3.050781 6.828126 6.824219 0 3.773437-3.054688 6.828124-6.828126 6.828124h-185.835937c-2.792969 0-5.304687-1.699218-6.339844-4.292968l-50.433593-126.28125c-16.964844-2.308594-30.085938-16.78125-30.085938-34.234375 0-18.113281 14.132812-33.019531 32.039062-34.433594-.019531-.40625-.027343-.8125-.027343-1.214844 0-16.867187 13.832031-30.585937 30.832031-30.585937 3.328125 0 6.574219.519531 9.640625 1.527344 2.539063-14.347657 15.191406-25.285157 30.378906-25.285157 5.5625 0 10.875 1.453125 15.535157 4.191407 5.734374-7.472657 14.757812-12.113282 24.480468-12.113282 15.339844 0 28.101563 11.167969 30.453125 25.734375l4.460938 1.699219c2.867187 1.09375 4.652343 3.960938 4.371093 7.007812-.285156 3.050782-2.566406 5.546876-5.582031 6.089844-97.265625 17.628906-106.523437 67.230469-107.398437 75.894532l45 98.507812h260.785156c3.773438 0 6.828125 3.054688 6.828125 6.828125v34.132813c.003906 3.773437-3.050781 6.828124-6.824219 6.828124zm0 0"
     fill="#101021"
     id="path4751" />
  <path
     d="m374.972656 130.054688h-311.949218l9.726562 21.289062h302.222656zm0 0"
     fill="#f5fcc1"
     id="path4753" />
  <path
     d="m374.972656 158.175781h-302.226562c-2.671875 0-5.097656-1.5625-6.214844-3.996093l-9.71875-21.292969c-.957031-2.113281-.785156-4.574219.472656-6.527344 1.253906-1.953125 3.421875-3.132813 5.742188-3.132813h311.945312c3.773438 0 6.824219 3.054688 6.824219 6.828126v21.292968c.003906 3.769532-3.050781 6.828125-6.824219 6.828125zm-297.839844-13.65625h291.015626v-7.640625h-294.503907zm0 0"
     fill="#101021"
     id="path4755" />
  <path
     d="m374.972656 120.488281-199.605468-75.980469c-113.035157 20.488282-113.09375 83.902344-113.09375 83.902344l.75 1.644532h311.949218zm0 0"
     fill="#DEB887"
     id="path4757" />
  <path
     d="m374.972656 136.878906h-311.945312c-2.664063 0-5.09375-1.550781-6.207032-3.980468l-.753906-1.636719c-.40625-.894531-.617187-1.867188-.617187-2.855469 0-2.820312 1.410156-69.359375 118.699219-90.621094 1.234374-.226562 2.480468-.101562 3.648437.339844l199.605469 75.984375c2.648437 1.007813 4.398437 3.546875 4.398437 6.382813v9.558593c0 3.777344-3.054687 6.828125-6.828125 6.828125zm-305.160156-13.652344h293.15625l-188.242188-71.660156c-85.632812 16.066406-101.855468 57.121094-104.914062 71.660156zm0 0"
     fill="#101021"
     id="path4759" />
  <path
     d="m72.75 151.34375 37.050781 81.109375h265.171875v-81.109375zm0 0"
     fill="#DEB887"
     id="path4761" />
  <path
     d="m374.972656 239.28125h-265.171875c-2.671875 0-5.101562-1.5625-6.207031-3.988281l-37.054688-81.105469c-.964843-2.113281-.792968-4.574219.464844-6.535156 1.253906-1.953125 3.414063-3.132813 5.742188-3.132813h302.226562c3.773438 0 6.824219 3.054688 6.824219 6.828125v81.105469c.003906 3.773437-3.050781 6.828125-6.824219 6.828125zm-260.785156-13.65625h253.960938v-67.449219h-284.777344zm0 0"
     fill="#101021"
     id="path4763" />
  <g
     fill="#ff0059"
     id="g4773">
    <path
       d="m347.660156 48.132812c-3.1875 0-6.039062-2.238281-6.6875-5.488281l-6.824218-34.132812c-.742188-3.699219 1.660156-7.292969 5.351562-8.03125 3.734375-.773438 7.300781 1.660156 8.035156 5.351562l6.824219 34.136719c.742187 3.699219-1.660156 7.289062-5.351563 8.03125-.457031.09375-.90625.132812-1.347656.132812zm0 0"
       id="path4765" />
    <path
       d="m381.886719 75.875c-3.121094 0-5.933594-2.148438-6.652344-5.320312-.832031-3.671876 1.472656-7.335938 5.15625-8.167969l33.945313-7.691407c3.679687-.816406 7.332031 1.472657 8.167968 5.152344.832032 3.671875-1.472656 7.332032-5.15625 8.167969l-33.945312 7.691406c-.511719.113281-1.015625.167969-1.515625.167969zm0 0"
       id="path4767" />
    <path
       d="m371.800781 51c-1.207031 0-2.421875-.320312-3.527343-.984375-3.226563-1.957031-4.261719-6.148437-2.308594-9.375l19.988281-33.039063c1.941406-3.226562 6.140625-4.261718 9.371094-2.308593 3.230469 1.957031 4.261719 6.148437 2.308593 9.375l-19.988281 33.039062c-1.277343 2.121094-3.53125 3.292969-5.84375 3.292969zm0 0"
       id="path4769" />
    <path
       d="m313.535156 198.320312h-129.707031c-3.773437 0-6.828125-3.054687-6.828125-6.828124 0-3.773438 3.054688-6.824219 6.828125-6.824219h129.707031c3.773438 0 6.824219 3.050781 6.824219 6.824219 0 3.773437-3.050781 6.828124-6.824219 6.828124zm0 0"
       id="path4771" />
  </g>
  <g
     id="g4973"
     transform="matrix(0.30802353,0,0,0.30802353,117.71566,-39.893685)">
    <path
       id="path3829"
       d="m 463.657,334.967 a 69.692,69.692 0 0 0 1.331,-11.742 c 0.51,-14.942 -2.559,-27.6 -9.122,-37.614 -8.06,-12.3 -21,-20 -38.493,-22.944 3.075,-15.539 -0.377,-29.98 -10.154,-42.106 -12.594,-15.621 -31.04,-17.356 -48.057,-15.393 a 73.85,73.85 0 0 0 25.75,-56.04 66.926,66.926 0 0 0 -19.626,-47.877 70.284,70.284 0 0 0 -17.333,-12.561 c -1.919,-20.5 7.71,-32.339 39.164,-49.2 a 6,6 0 1 0 -5.669,-10.576 c -28.439,15.247 -45.476,29.632 -45.692,54.808 a 78.07,78.07 0 0 0 -23.17,-3.526 h -0.448 c -22.708,0.13 -42.045,8.46 -55.923,24.09 A 76.3,76.3 0 0 0 240.89,131.29 c -2.13,-9.744 -3.573,-18.837 -4.771,-26.409 -1.727,-10.922 -2.869,-18.138 -5.063,-22.31 -0.769,-1.462 -3.207,-4.728 -9.288,-3.537 -11.416,2.248 -43.177,22.085 -73.119,53.482 -26.548,27.84 -59.33,72.894 -64.742,129.427 -0.578,6.036 0.483,15.89 1.843,21.929 a 21.728,21.728 0 0 0 2.49,6.275 c -0.616,0.053 -1.216,0.1 -1.8,0.131 -30.965,1.787 -52.127,28.183 -54.7,52.67 -1.131,10.776 1.247,20.85 6.874,29.13 a 42,42 0 0 0 3.253,4.168 c -7.263,4.573 -18.6,12.568 -28.109,23.065 -7.3,8.051 -17.817,33.83 -9.078,56.943 4.886,12.914 17.72,29.093 51.11,32.831 a 776.8,776.8 0 0 0 86.282,5.042 q 30.387,0 58.6,-2.747 c 29.114,-1.073 58.112,0.6 86.171,2.218 21.778,1.257 43.117,2.491 64.079,2.491 38.01,0 74.759,-4.057 110.488,-19.372 a 90.378,90.378 0 0 0 34.952,-27.69 c 12.037,-16.02 16.555,-34.516 13.065,-53.488 -5.664,-30.772 -35.102,-53.306 -45.77,-60.572 z M 248.645,158.32 c 0,-45.184 32.949,-65.951 63.562,-66.126 h 0.381 c 16.891,0 33,6.392 44.236,17.567 a 54.284,54.284 0 0 1 16.088,39.368 62.079,62.079 0 0 1 -62.012,62.007 v 0.115 c -17.378,0.054 -29.874,-3.695 -37.315,-11.235 -11.68,-11.833 -19.54,-26.645 -25.025,-41.7 z M 43.677,344.2 c 2,-19.081 19.184,-40.542 43.452,-41.943 3.639,-0.21 7.654,-0.757 11.905,-1.337 1.384,-0.189 2.789,-0.38 4.223,-0.567 a 8.106,8.106 0 0 0 2.192,-0.141 l 0.279,-0.042 a 5.959,5.959 0 0 0 1.373,-0.29 q 0.876,-0.1 1.769,-0.194 C 255,284.343 274.334,264 275.864,255.966 a 6,6 0 0 0 -11.486,-3.3 c -1.436,1.923 -18.766,20.6 -156.76,35.088 -1.348,0.14 -2.656,0.293 -3.934,0.45 a 9.382,9.382 0 0 1 -6.227,-6.969 c -1.25,-5.547 -2,-14.027 -1.6,-18.148 5.169,-53.99 37.18,-97.23 63.124,-124 26.2,-27.034 52.882,-43.84 62.568,-47.551 0.895,3.661 1.791,9.324 2.722,15.217 4.253,26.888 11.37,71.891 40.782,101.69 15.1,15.3 42.722,18.71 84.447,10.42 24.735,-4.913 39.206,-2.154 48.382,9.226 8.686,10.774 10.8,23.5 6.29,37.838 -6.957,22.1 -63.345,58.679 -131.165,85.092 -57.254,22.3 -112.526,34.1 -156.612,34.1 -17.012,0 -32.367,-1.76 -45.515,-5.353 C 51.766,374.55 41.852,361.585 43.677,344.2 Z M 57.125,477.159 C 35.156,474.7 21.287,466.238 15.906,452.008 9.485,435.027 16.994,413.613 22.652,407.37 32.787,396.186 45.617,387.921 51.541,384.412 a 59.547,59.547 0 0 0 16.171,6.935 c 14.356,3.922 30.69,5.885 48.867,5.884 a 326.3,326.3 0 0 0 51.319,-4.425 c 34.311,-5.494 72.161,-16.076 109.459,-30.6 34.328,-13.37 66.84,-29.645 91.546,-45.824 16.674,-10.92 37.174,-26.672 44.8,-42.146 27.037,3.944 40.258,20.264 39.297,48.579 -0.364,10.682 -2.528,17.488 -8.9,28.012 -12.839,21.188 -43.537,61.227 -104.878,91.317 -40.157,19.694 -86.782,32.119 -139.422,37.256 -0.373,0.014 -0.746,0.023 -1.119,0.038 v 0.071 q -64.827,6.197 -141.556,-2.35 z m 429.638,-35.34 a 77.843,77.843 0 0 1 -30.086,23.869 c -52.836,22.649 -109.333,19.384 -169.147,15.93 -6.838,-0.395 -13.734,-0.792 -20.675,-1.154 A 374.075,374.075 0 0 0 344.5,452.918 c 64.088,-31.437 96.337,-73.561 109.856,-95.872 a 92.882,92.882 0 0 0 5.417,-10.115 c 11.015,8.017 33.469,26.955 37.85,50.778 2.905,15.811 -0.748,30.652 -10.86,44.11 z"
       inkscape:connector-curvature="0" />
    <path
       inkscape:connector-curvature="0"
       id="path4645"
       d="m 300.56722,210.50846 c -11.32954,-1.20137 -20.23487,-4.7323 -26.34069,-10.44399 -8.68622,-8.12554 -17.51314,-22.01217 -23.50153,-36.97294 -1.69218,-4.2276 -1.72924,-4.49911 -1.44336,-10.57628 1.34163,-28.52006 18.83412,-50.48221 45.99838,-57.751846 30.16653,-8.073094 61.84195,6.026396 73.01864,32.502356 3.15449,7.47254 4.1258,12.5161 4.13148,21.45288 0.0112,17.55519 -5.87395,31.85138 -18.13291,44.04874 -13.9298,13.85981 -32.50181,19.99209 -53.73001,17.74108 z"
       style="fill:#ff0059;fill-opacity:1;stroke-width:0.54237288" />
    <path
       inkscape:connector-curvature="0"
       id="path4647"
       d="m 97.280439,384.09491 c -27.905254,-2.88739 -41.453361,-8.35845 -48.933411,-19.76052 -3.164087,-4.82312 -4.496737,-9.71183 -4.441625,-16.29371 0.05134,-6.13103 0.584678,-8.82313 2.97695,-15.0265 3.496427,-9.06654 12.172251,-19.36515 20.463071,-24.29063 5.213192,-3.0971 11.714576,-5.25535 17.96983,-5.96538 5.436845,-0.61714 17.415536,-2.02267 44.203386,-5.18664 65.37771,-7.72189 108.33948,-16.93771 131.33603,-28.17316 12.65497,-6.18285 17.64581,-12.47201 14.25332,-17.96118 -2.29643,-3.7157 -8.14164,-3.66343 -10.35776,0.0926 -4.75386,8.0572 -36.44914,18.05209 -82.35585,25.97036 -19.78543,3.41271 -68.15752,9.7985 -77.20653,10.19233 -4.67619,0.20352 -7.046915,-3.00522 -8.278291,-11.20448 -1.5251,-10.15508 -0.435244,-22.09736 3.414561,-37.41554 11.18668,-44.51128 42.12877,-89.25802 86.02168,-124.3998 9.46478,-7.57774 21.74021,-15.923499 29.32877,-19.939899 l 5.68942,-3.011242 0.57778,2.871439 c 0.31778,1.579291 1.56839,8.973132 2.77913,16.430762 6.25279,38.51441 14.1896,62.04273 27.71823,82.16949 10.28365,15.29917 18.55103,22.33489 31.148,26.50765 8.33514,2.76102 14.32164,3.54263 27.08406,3.53614 12.38199,-0.006 20.24941,-0.78694 35.37217,-3.50982 13.17047,-2.37138 16.0526,-2.70273 23.54498,-2.707 12.23549,-0.007 19.17594,2.41519 25.69302,8.96659 6.10688,6.13905 9.39199,12.79422 10.57292,21.41925 0.6475,4.72906 0.4203,8.22977 -0.93341,14.38204 -1.72499,7.83963 -4.76723,12.61215 -13.66629,21.43905 -30.19044,29.9456 -102.28145,65.82403 -171.70204,85.45306 -25.0741,7.08984 -49.24644,11.87293 -74.0339,14.64943 -9.06574,1.01547 -40.93407,1.52106 -48.238201,0.7653 z"
       style="fill:none;fill-opacity:1;stroke-width:0.54237288" />
    <path
       inkscape:connector-curvature="0"
       id="path4649"
       d="m 97.280439,384.09491 c -27.905254,-2.88739 -41.453361,-8.35845 -48.933411,-19.76052 -3.164087,-4.82312 -4.496737,-9.71183 -4.441625,-16.29371 0.05134,-6.13103 0.584678,-8.82313 2.97695,-15.0265 3.496427,-9.06654 12.172251,-19.36515 20.463071,-24.29063 5.213192,-3.0971 11.714576,-5.25535 17.96983,-5.96538 5.436845,-0.61714 17.415536,-2.02267 44.203386,-5.18664 65.37771,-7.72189 108.33948,-16.93771 131.33603,-28.17316 12.65497,-6.18285 17.64581,-12.47201 14.25332,-17.96118 -2.29643,-3.7157 -8.14164,-3.66343 -10.35776,0.0926 -4.75386,8.0572 -36.44914,18.05209 -82.35585,25.97036 -19.78543,3.41271 -68.15752,9.7985 -77.20653,10.19233 -4.67619,0.20352 -7.046915,-3.00522 -8.278291,-11.20448 -1.5251,-10.15508 -0.435244,-22.09736 3.414561,-37.41554 11.18668,-44.51128 42.12877,-89.25802 86.02168,-124.3998 9.46478,-7.57774 21.74021,-15.923499 29.32877,-19.939899 l 5.68942,-3.011242 0.57778,2.871439 c 0.31778,1.579291 1.56839,8.973132 2.77913,16.430762 6.25279,38.51441 14.1896,62.04273 27.71823,82.16949 10.28365,15.29917 18.55103,22.33489 31.148,26.50765 8.33514,2.76102 14.32164,3.54263 27.08406,3.53614 12.38199,-0.006 20.24941,-0.78694 35.37217,-3.50982 13.17047,-2.37138 16.0526,-2.70273 23.54498,-2.707 12.23549,-0.007 19.17594,2.41519 25.69302,8.96659 6.10688,6.13905 9.39199,12.79422 10.57292,21.41925 0.6475,4.72906 0.4203,8.22977 -0.93341,14.38204 -1.72499,7.83963 -4.76723,12.61215 -13.66629,21.43905 -30.19044,29.9456 -102.28145,65.82403 -171.70204,85.45306 -25.0741,7.08984 -49.24644,11.87293 -74.0339,14.64943 -9.06574,1.01547 -40.93407,1.52106 -48.238201,0.7653 z"
       style="fill:#fdffe5;fill-opacity:1;stroke-width:0.54237288" />
    <path
       inkscape:connector-curvature="0"
       id="path4651"
       d="M 110.26441,481.16853 C 89.427363,480.12851 59.853615,477.52744 50.874576,475.94508 31.278375,472.49167 19.086859,463.03009 14.95585,448.06929 c -1.552049,-5.62087 -1.274208,-17.64053 0.567932,-24.56925 2.287753,-8.60477 5.085993,-13.754 10.304521,-18.96205 5.741926,-5.7304 11.292312,-10.23036 19.15948,-15.53352 l 6.33947,-4.27336 4.655018,2.33588 c 5.731903,2.87626 11.65538,4.77622 20.429601,6.5528 34.238938,6.9326 77.467088,4.25552 127.614198,-7.90304 88.47791,-21.45217 183.90931,-70.61712 207.15278,-106.72226 1.2106,-1.88048 2.28756,-3.67848 2.39326,-3.99555 0.26574,-0.79722 7.14214,0.67248 12.78949,2.73351 9.97781,3.64145 17.21764,9.9326 21.72605,18.87915 5.05615,10.03352 6.09498,28.88663 2.22919,40.45607 -6.07618,18.18461 -29.81086,47.83284 -54.92019,68.60367 -35.56419,29.41926 -79.03891,50.19919 -131.32548,62.77062 -25.67437,6.17297 -49.81392,9.75622 -82.48473,12.24394 -9.93314,0.75636 -59.16323,1.08949 -71.32203,0.48263 z"
       style="fill:#fdffe5;fill-opacity:1;stroke-width:0.54237288" />
    <path
       inkscape:connector-curvature="0"
       id="path4653"
       d="m 326.94237,483.39474 c -19.61542,-0.78603 -57.20879,-2.9721 -56.80862,-3.30344 0.22102,-0.18299 4.42896,-1.38944 9.351,-2.68099 24.72148,-6.487 54.16196,-18.02742 75.38983,-29.55219 34.49798,-18.72921 61.91336,-41.06772 83.89596,-68.35981 6.54659,-8.1278 15.9344,-21.96349 19.02822,-28.04366 l 2.12656,-4.17924 4.55937,3.61304 c 6.37081,5.04848 16.41482,15.22868 20.68291,20.96333 4.53487,6.0931 9.12708,14.8947 11.06409,21.20585 1.39255,4.53719 1.5003,5.56968 1.52816,14.64407 0.0264,8.591 -0.11853,10.28347 -1.20738,14.10169 -4.78793,16.78948 -19.15291,33.17437 -36.81832,41.99546 -19.32367,9.64913 -47.99112,16.52329 -79.36805,19.03164 -9.55965,0.76422 -40.3248,1.08916 -53.42373,0.56425 z"
       style="fill:#fdffe5;fill-opacity:1;stroke-width:0.54237288" />
    <path
       inkscape:connector-curvature="0"
       id="path4657"
       d="m 303.7017,210.73287 c -8.74927,-0.67361 -15.82819,-2.42008 -21.55933,-5.319 -5.00843,-2.53337 -8.53869,-5.50903 -13.3079,-11.21726 -6.67743,-7.99217 -13.12118,-19.0487 -17.81987,-30.57627 -1.83062,-4.49117 -1.93881,-5.12874 -1.70904,-10.07143 0.26362,-5.67101 0.83627,-9.83244 2.00065,-14.53874 5.08884,-20.56846 19.52748,-36.1168 39.85311,-42.916045 7.19818,-2.407905 13.71115,-3.484167 21.15254,-3.495433 3.68192,-0.0056 6.0036,0.143541 9.26085,0.5948 11.26421,1.560539 21.94242,6.088864 30.53576,12.949348 2.28955,1.82785 6.85576,6.37367 8.57588,8.53756 3.08451,3.88029 5.62868,8.11039 7.46815,12.41701 2.10978,4.93949 3.26375,9.01832 3.83065,13.53988 0.2906,2.31786 0.4153,10.49442 0.20272,13.29229 -1.24732,16.41624 -7.83322,29.70642 -20.33976,41.04514 -9.72286,8.81496 -21.61497,14.0255 -35.53425,15.56937 -2.30668,0.25584 -10.20352,0.37406 -12.61016,0.18878 z"
       style="fill:#ff0059;fill-opacity:1;stroke-width:0.13559322" />
    <path
       inkscape:connector-curvature="0"
       id="path4659"
       d="m 363.28098,118.05114 c -1.83675,-2.69284 -3.90674,-5.19449 -6.27943,-7.58886 -1.91745,-1.93498 -3.76402,-3.56355 -5.85004,-5.15943 -9.29346,-7.109785 -20.702,-11.476778 -32.802,-12.55604 -3.02031,-0.269397 -6.28919,-0.328516 -9.32422,-0.168632 -1.12414,0.05922 -2.5789,0.173253 -3.49958,0.274319 -6.08526,0.668 -11.61306,2.013008 -17.40038,4.233811 -0.0352,0.01352 -0.0389,-0.0058 -0.0327,-0.170851 l 0.007,-0.186092 0.27565,-0.104822 c 6.18882,-2.353404 12.91135,-3.816366 19.58327,-4.26172 1.75883,-0.117403 2.61745,-0.144179 4.61417,-0.143889 1.77252,2.58e-4 2.45179,0.01726 3.82317,0.09567 13.90644,0.795171 27.05918,5.909206 37.12793,14.436046 1.19829,1.01479 2.20335,1.94241 3.40666,3.14418 2.13903,2.13629 3.85104,4.13231 5.57902,6.50453 0.37784,0.51871 1.17443,1.66208 1.32615,1.90346 l 0.049,0.0779 h -0.18946 -0.18946 z"
       style="fill:#ff0059;fill-opacity:1;stroke-width:0.02396972" />
    <path
       inkscape:connector-curvature="0"
       id="path4661"
       d="m 250.3546,141.53572 c 0,-0.12027 0.36568,-1.71588 0.65159,-2.84318 1.75501,-6.91962 4.53729,-13.30782 8.30156,-19.0606 4.37135,-6.68057 10.37019,-12.60485 17.24611,-17.03176 3.407,-2.19352 7.40715,-4.242751 11.06167,-5.666756 l 0.46741,-0.182129 v 0.174796 c 0,0.170176 -0.008,0.177841 -0.29962,0.289938 -1.16549,0.447885 -3.00975,1.259491 -4.47203,1.96801 -10.5903,5.131321 -19.22495,12.976361 -25.13348,22.835081 -3.40773,5.68598 -5.8281,11.8079 -7.34115,18.56814 -0.10693,0.47778 -0.19442,0.90384 -0.19442,0.9468 0,0.0548 -0.0429,0.0781 -0.14382,0.0781 -0.0997,0 -0.14382,-0.0235 -0.14382,-0.0764 z"
       style="fill:#ff0059;fill-opacity:1;stroke-width:0.04793944" />
    <path
       inkscape:connector-curvature="0"
       id="path4663"
       d="m 304.42071,210.79009 c -10.94754,-0.64315 -20.07411,-3.35763 -26.63801,-7.92282 -3.25884,-2.26652 -6.98416,-6.03069 -10.71287,-10.82459 -5.92644,-7.61944 -11.37507,-17.14949 -15.64375,-27.36205 -1.07495,-2.57174 -1.68856,-4.23844 -1.95293,-5.30453 -0.59421,-2.39614 -0.13287,-10.50537 0.92767,-16.30639 0.1822,-0.99656 0.30889,-1.8343 0.28155,-1.86165 -0.0273,-0.0273 -0.0497,0.0438 -0.0497,0.15802 0,0.11426 -0.0432,0.20774 -0.0959,0.20774 -0.14643,0 -0.12026,-0.20671 0.19872,-1.56965 1.75099,-7.4817 4.75248,-14.52322 8.77599,-20.58848 4.94594,-7.45581 11.75742,-13.80376 19.74102,-18.39764 2.83514,-1.631378 8.66437,-4.360562 8.76063,-4.101637 0.0497,0.13367 -0.0517,0.185949 -1.56719,0.80808 -1.73469,0.712114 -5.66961,2.673227 -7.3852,3.680687 -12.54526,7.36709 -21.60723,18.48537 -26.33153,32.30657 -0.75483,2.20829 -2.01104,6.78972 -1.99607,7.2797 0.003,0.083 0.25686,-0.84143 0.56517,-2.0543 1.56423,-6.15365 3.77446,-11.56808 6.79061,-16.63498 6.8803,-11.55841 17.34347,-20.28135 30.2748,-25.239515 2.86825,-1.099751 6.79929,-2.30771 9.14812,-2.811101 0.44516,-0.0954 0.76327,-0.188836 0.7069,-0.207625 -0.38827,-0.129425 -6.44116,1.620456 -9.07497,2.623561 -0.94224,0.358858 -1.02261,0.374803 -1.02217,0.202801 3.3e-4,-0.132983 2.65552,-1.099407 4.69776,-1.70987 5.0573,-1.511722 10.1192,-2.416644 15.54144,-2.778364 2.27102,-0.151501 8.24138,-0.06957 10.34586,0.141982 6.50693,0.654097 12.5104,2.097251 18.25781,4.388934 2.0266,0.808073 5.12849,2.27198 6.9071,3.259737 7.89583,4.38499 14.36272,10.167 19.35165,17.30217 0.58213,0.83257 0.6138,0.89876 0.42667,0.89178 -0.0659,-0.002 -0.42187,-0.44211 -0.791,-0.97702 -1.6586,-2.40342 -3.58288,-4.67195 -6.08382,-7.17217 -1.03077,-1.03048 -2.3703,-2.29798 -2.97674,-2.81666 -6.41276,-5.48486 -13.73551,-9.490026 -22.09733,-12.086085 -0.78103,-0.242484 -1.46152,-0.427061 -1.51219,-0.41017 -0.0507,0.01689 0.26822,0.133519 0.70865,0.259174 4.72524,1.348112 10.09218,3.679798 14.43798,6.272621 10.86704,6.48358 18.8877,15.74466 23.41735,27.03892 2.31271,5.76652 3.25905,10.12848 3.54903,16.35843 0.8508,18.27885 -4.26657,32.99857 -15.868,45.64309 -8.38744,9.14156 -18.6617,15.34707 -30.39243,18.35662 -4.02701,1.03314 -8.15832,1.66913 -12.75025,1.96283 -1.74122,0.11137 -6.93131,0.10778 -8.87043,-0.006 z M 330.01238,94.841406 c -0.0716,-0.07063 -1.25847,-0.356046 -1.30152,-0.312994 -0.023,0.02303 0.20826,0.107456 0.51397,0.187615 0.56918,0.149241 0.85844,0.195292 0.78755,0.125379 z m -1.45616,-0.402045 c -0.0319,-0.03186 -0.11456,-0.03527 -0.18377,-0.0076 -0.0765,0.03061 -0.0538,0.05333 0.0579,0.05793 0.10107,0.0042 0.1577,-0.0185 0.12584,-0.05036 z m -0.78901,-0.190409 c -0.71754,-0.202531 -4.22409,-0.903313 -4.47758,-0.894843 -0.12126,0.0041 0.51299,0.150364 1.40946,0.32514 0.89647,0.174775 1.9751,0.403966 2.39697,0.509314 0.87405,0.218263 1.39729,0.265344 0.67115,0.06039 z M 299.435,93.824316 c 0.44824,-0.101644 0.62082,-0.162761 0.38352,-0.135816 -0.49568,0.05628 -1.5579,0.305087 -1.34231,0.314406 0.0791,0.0034 0.51056,-0.07695 0.95879,-0.17859 z m 1.17452,-0.253436 c -0.0659,-0.0266 -0.17378,-0.0266 -0.2397,0 -0.0659,0.0266 -0.012,0.04836 0.11985,0.04836 0.13183,0 0.18577,-0.02176 0.11985,-0.04836 z m 0.5771,-0.09527 c -0.0649,-0.02626 -0.19435,-0.02786 -0.28764,-0.0036 -0.0933,0.02431 -0.0402,0.0458 0.11802,0.04775 0.1582,0.002 0.23453,-0.01793 0.16962,-0.0442 z m 0.57527,-0.09588 c -0.0649,-0.02626 -0.19435,-0.02786 -0.28764,-0.0036 -0.0933,0.02431 -0.0402,0.0458 0.11803,0.04775 0.1582,0.002 0.23452,-0.01793 0.16961,-0.0442 z m 0.57527,-0.09588 c -0.0649,-0.02626 -0.19435,-0.02786 -0.28763,-0.0036 -0.0933,0.02431 -0.0402,0.0458 0.11802,0.04775 0.1582,0.002 0.23453,-0.01794 0.16961,-0.0442 z m 20.34847,-0.03849 c -0.21093,-0.04363 -0.49138,-0.07613 -0.62321,-0.07223 -0.33283,0.0099 0.32862,0.147797 0.71909,0.149963 0.23977,0.0013 0.22382,-0.01161 -0.0959,-0.07773 z m -19.72708,-0.06059 c -0.0923,-0.02412 -0.24329,-0.02412 -0.33557,0 -0.0923,0.02412 -0.0168,0.04385 0.16778,0.04385 0.18457,0 0.26008,-0.01973 0.16779,-0.04385 z m 0.67115,-0.09588 c -0.0923,-0.02412 -0.24329,-0.02412 -0.33557,0 -0.0923,0.02412 -0.0168,0.04385 0.16779,0.04385 0.18456,0 0.26007,-0.01973 0.16778,-0.04385 z m 17.76157,-0.03468 c -0.2373,-0.04222 -0.56089,-0.07385 -0.71909,-0.07027 -0.24214,0.0055 -0.22698,0.01736 0.0959,0.07517 0.21093,0.03777 0.53452,0.06939 0.71909,0.07027 0.30109,0.0014 0.29123,-0.0063 -0.0959,-0.07517 z m -16.44323,-0.08657 c 0.38782,-0.06041 0.41529,-0.07551 0.14382,-0.07908 -0.18457,-0.0024 -0.55131,0.02919 -0.81497,0.07026 -0.38783,0.06041 -0.4153,0.07551 -0.14382,0.07908 0.18457,0.0024 0.5513,-0.02919 0.81497,-0.07026 z m 15.22077,-0.07208 c -0.11865,-0.02285 -0.3128,-0.02285 -0.43145,0 -0.11865,0.02285 -0.0216,0.04155 0.21572,0.04155 0.2373,0 0.33438,-0.0187 0.21573,-0.04155 z m -12.59209,-0.183415 c 0.0664,-0.06073 -0.95987,-0.02093 -1.57401,0.06103 -0.40852,0.05452 -0.26956,0.0621 0.47939,0.02615 0.58007,-0.02785 1.07265,-0.06708 1.09462,-0.08719 z m 11.7305,0.08771 c -0.11792,-0.02276 -0.33365,-0.02335 -0.47939,-0.0013 -0.14575,0.02204 -0.0493,0.04066 0.21441,0.04138 0.26366,7.2e-4 0.38291,-0.01731 0.26498,-0.04007 z m -1.00633,-0.09689 c -0.14407,-0.02188 -0.40294,-0.02232 -0.57527,-9.78e-4 -0.17233,0.02134 -0.0544,0.03924 0.26195,0.03978 0.3164,5.38e-4 0.45739,-0.01692 0.31332,-0.0388 z m -9.5896,-0.09722 c -0.19775,-0.02069 -0.52135,-0.02069 -0.7191,0 -0.19775,0.02069 -0.036,0.03761 0.35955,0.03761 0.3955,0 0.5573,-0.01692 0.35955,-0.03761 z m 8.34399,1.51e-4 c -0.19635,-0.0206 -0.54152,-0.02089 -0.76703,-6.33e-4 -0.22551,0.02025 -0.0648,0.03711 0.35701,0.03746 0.42187,3.48e-4 0.60638,-0.01622 0.41002,-0.03683 z m -2.98096,-0.09797 c -0.93942,-0.01571 -2.44951,-0.01568 -3.35576,6e-5 -0.90625,0.01574 -0.13764,0.0286 1.70803,0.02857 1.84567,-3.3e-5 2.58715,-0.01291 1.64773,-0.02863 z"
       style="fill:#ff0059;fill-opacity:1;stroke-width:0.09587888" />
    <path
       inkscape:connector-curvature="0"
       id="path4665"
       d=""
       style="fill:#ff0059;fill-opacity:1;stroke-width:0.09587888" />
    <path
       inkscape:connector-curvature="0"
       id="path4667"
       d="m 258.51404,179.9038 c -0.026,-0.033 -0.29891,-0.50772 -0.60649,-1.05504 -3.22195,-5.73315 -6.04536,-11.85569 -8.7156,-18.89975 l -0.52701,-1.39024 0.006,-1.05467 c 0.0281,-4.89025 0.53491,-10.12117 1.42699,-14.7294 l 0.22504,-1.16253 h 0.13428 c 0.0757,0 0.13412,0.0262 0.13391,0.0599 -2.1e-4,0.033 -0.0654,0.3943 -0.14483,0.80298 -0.80371,4.13394 -1.29895,9.40515 -1.3039,13.87847 -0.002,2.11033 0.16284,3.06484 0.85029,4.91379 0.58219,1.56585 1.77071,4.43351 2.72203,6.56771 1.67986,3.76864 4.18639,8.7023 5.93739,11.68671 0.1281,0.21833 0.23291,0.40709 0.23291,0.41947 0,0.0509 -0.32747,0.0179 -0.37108,-0.0374 z"
       style="fill:#ff0059;fill-opacity:1;stroke-width:0.04793944" />
    <path
       inkscape:connector-curvature="0"
       id="path4669"
       d="m 307.44778,211.18829 c -14.45235,-0.44131 -24.97941,-3.56718 -32.02355,-9.50895 -1.38595,-1.16907 -3.79507,-3.66632 -5.91211,-6.12841 -3.9428,-4.58542 -7.17944,-9.16436 -10.76375,-15.22766 l -0.19837,-0.33557 0.17237,-0.0152 c 0.0948,-0.008 0.17745,-0.008 0.18365,0 0.006,0.008 0.29862,0.50055 0.6498,1.0938 3.15795,5.33465 6.85902,10.53488 10.30399,14.47772 1.53343,1.75503 4.02379,4.28836 5.23292,5.32321 4.22306,3.61436 9.43784,6.22313 15.8455,7.92694 7.05501,1.87595 15.99415,2.59888 24.03604,1.94386 2.47307,-0.20143 5.39276,-0.6003 7.37597,-1.00765 0.24679,-0.0507 0.46791,-0.0922 0.49138,-0.0922 0.0235,0 0.0427,0.0633 0.0427,0.14059 0,0.16376 0.0185,0.15611 -0.69512,0.28678 -3.41808,0.62588 -6.38817,0.92907 -10.17515,1.03869 -0.61302,0.0177 -1.11459,0.0511 -1.11459,0.0741 0,0.0369 -2.34641,0.0436 -3.45164,0.01 z"
       style="fill:#ff0059;fill-opacity:1;stroke-width:0.04793944" />
    <path
       inkscape:connector-curvature="0"
       id="path4671"
       d=""
       style="fill:#ff0059;fill-opacity:1;stroke-width:0.04793944" />
    <path
       inkscape:connector-curvature="0"
       id="path4673"
       d="m 322.88428,209.78437 c 0,-0.082 0.027,-0.15715 0.0599,-0.16695 0.033,-0.01 0.57767,-0.13052 1.21047,-0.26828 9.19495,-2.00165 18.06748,-6.29025 25.3817,-12.26845 2.96592,-2.42416 5.96201,-5.35244 8.53947,-8.34621 6.99913,-8.12963 11.50677,-17.50196 13.3026,-27.65889 0.0956,-0.54052 0.18176,-1.00973 0.19153,-1.04269 0.01,-0.0334 0.0932,-0.0599 0.18797,-0.0599 0.15147,0 0.16764,0.0119 0.14686,0.10786 -0.0128,0.0593 -0.1013,0.50696 -0.19657,0.99475 -1.47478,7.55014 -4.44263,14.92497 -8.64295,21.47687 -6.45422,10.06767 -15.69115,18.06077 -26.59018,23.00957 -4.2449,1.92744 -8.86803,3.42092 -13.43503,4.34011 -0.1491,0.03 -0.1558,0.0249 -0.1558,-0.11777 z"
       style="fill:#ff0059;fill-opacity:1;stroke-width:0.04793944" />
    <path
       inkscape:connector-curvature="0"
       id="path4675"
       d="m 371.59075,159.93696 c 0,-0.0198 0.0631,-0.46745 0.14031,-0.99474 0.53612,-3.6633 0.76309,-7.33649 0.70502,-11.40953 -0.0297,-2.08618 -0.0763,-3.32399 -0.17573,-4.67409 -0.39483,-5.36048 -1.4482,-9.59722 -3.78025,-15.20456 -1.26454,-3.04054 -2.64781,-5.68188 -4.42084,-8.44157 l -0.5159,-0.80299 h 0.17783 0.17783 l 0.55569,0.8749 c 4.13784,6.51473 6.88404,14.00483 7.9227,21.6087 0.24471,1.79151 0.37276,3.18753 0.46392,5.05761 0.0637,1.30775 0.0328,5.41494 -0.0504,6.68755 -0.13613,2.08226 -0.34788,4.03438 -0.65259,6.0164 -0.21869,1.42247 -0.18828,1.31834 -0.38496,1.31834 -0.0894,0 -0.1626,-0.0162 -0.1626,-0.036 z"
       style="fill:#ff0059;fill-opacity:1;stroke-width:0.04793944" />
  </g>
</svg>
